REM DIRINDEX 1\2,1\3,1\4,1\5,1\6
REM DIRNAME folder01,folder02,folder03,folder04,folder05,folder06
TITLE ""
FILE "DISC2Track19.mp3" MP3
  TRACK 01 AUDIO
    TITLE "0:"
    INDEX 01 00:00:00
  TRACK 02 AUDIO
    TITLE "3:cjc129_1488"
    INDEX 01 00:00:07
  TRACK 03 AUDIO
    TITLE "0:"
    INDEX 01 00:01:28
  TRACK 04 AUDIO
    TITLE "5:cjc129_1489"
    INDEX 01 00:02:73
  TRACK 05 AUDIO
    TITLE "0:"
    INDEX 01 00:07:03
  TRACK 06 AUDIO
    TITLE "4:cjc129_1490"
    INDEX 01 00:07:68
  TRACK 07 AUDIO
    TITLE "0:"
    INDEX 01 00:09:14
  TRACK 08 AUDIO
    TITLE "6:cjc129_1491"
    INDEX 01 00:09:45
  TRACK 09 AUDIO
    TITLE "0:"
    INDEX 01 00:12:28
  TRACK 10 AUDIO
    TITLE "3:cjc129_1492"
    INDEX 01 00:14:06
  TRACK 11 AUDIO
    TITLE "0:"
    INDEX 01 00:15:25
  TRACK 12 AUDIO
    TITLE "5:cjc129_1493"
    INDEX 01 00:16:57
  TRACK 13 AUDIO
    TITLE "0:"
    INDEX 01 00:18:54
  TRACK 14 AUDIO
    TITLE "4:cjc129_1494"
    INDEX 01 00:19:44
  TRACK 15 AUDIO
    TITLE "0:"
    INDEX 01 00:20:63
  TRACK 16 AUDIO
    TITLE "6:cjc129_1495"
    INDEX 01 00:21:21
  TRACK 17 AUDIO
    TITLE "0:"
    INDEX 01 00:25:66
  TRACK 18 AUDIO
    TITLE "3:cjc129_1496"
    INDEX 01 00:27:41
  TRACK 19 AUDIO
    TITLE "0:"
    INDEX 01 00:28:62
  TRACK 20 AUDIO
    TITLE "5:cjc129_1497"
    INDEX 01 00:30:30
  TRACK 21 AUDIO
    TITLE "0:"
    INDEX 01 00:34:34
  TRACK 22 AUDIO
    TITLE "4:cjc129_1498"
    INDEX 01 00:35:27
  TRACK 23 AUDIO
    TITLE "0:"
    INDEX 01 00:36:50
  TRACK 24 AUDIO
    TITLE "6:cjc129_1499"
    INDEX 01 00:37:03
  TRACK 25 AUDIO
    TITLE "0:"
    INDEX 01 00:42:02
  TRACK 26 AUDIO
    TITLE "3:cjc129_1500"
    INDEX 01 00:43:52
  TRACK 27 AUDIO
    TITLE "0:"
    INDEX 01 00:44:73
  TRACK 28 AUDIO
    TITLE "5:cjc129_1501"
    INDEX 01 00:46:29
  TRACK 29 AUDIO
    TITLE "0:"
    INDEX 01 00:48:10
  TRACK 30 AUDIO
    TITLE "4:cjc129_1502"
    INDEX 01 00:49:00
  TRACK 31 AUDIO
    TITLE "0:"
    INDEX 01 00:50:19
  TRACK 32 AUDIO
    TITLE "6:cjc129_1503"
    INDEX 01 00:50:54
  TRACK 33 AUDIO
    TITLE "0:"
    INDEX 01 00:55:10
  TRACK 34 AUDIO
    TITLE "3:cjc129_1504"
    INDEX 01 00:56:61
  TRACK 35 AUDIO
    TITLE "0:"
    INDEX 01 00:58:05
  TRACK 36 AUDIO
    TITLE "5:cjc129_1505"
    INDEX 01 00:59:51
  TRACK 37 AUDIO
    TITLE "0:"
    INDEX 01 01:01:60
  TRACK 38 AUDIO
    TITLE "4:cjc129_1506"
    INDEX 01 01:02:54
  TRACK 39 AUDIO
    TITLE "0:"
    INDEX 01 01:04:00
  TRACK 40 AUDIO
    TITLE "6:cjc129_1507"
    INDEX 01 01:04:33
  TRACK 41 AUDIO
    TITLE "0:"
    INDEX 01 01:08:44
  TRACK 42 AUDIO
    TITLE "3:cjc129_1508"
    INDEX 01 01:10:20
  TRACK 43 AUDIO
    TITLE "0:"
    INDEX 01 01:11:37
  TRACK 44 AUDIO
    TITLE "5:cjc129_1509"
    INDEX 01 01:13:10
  TRACK 45 AUDIO
    TITLE "0:"
    INDEX 01 01:15:62
  TRACK 46 AUDIO
    TITLE "4:cjc129_1510"
    INDEX 01 01:16:54
  TRACK 47 AUDIO
    TITLE "0:"
    INDEX 01 01:17:73
  TRACK 48 AUDIO
    TITLE "6:cjc129_1511"
    INDEX 01 01:18:29
  TRACK 49 AUDIO
    TITLE "0:"
    INDEX 01 01:23:09
  TRACK 50 AUDIO
    TITLE "3:cjc129_1512"
    INDEX 01 01:24:59
  TRACK 51 AUDIO
    TITLE "0:"
    INDEX 01 01:26:05
  TRACK 52 AUDIO
    TITLE "5:cjc129_1513"
    INDEX 01 01:27:36
  TRACK 53 AUDIO
    TITLE "0:"
    INDEX 01 01:29:19
  TRACK 54 AUDIO
    TITLE "4:cjc129_1514"
    INDEX 01 01:30:09
  TRACK 55 AUDIO
    TITLE "0:"
    INDEX 01 01:31:28
  TRACK 56 AUDIO
    TITLE "6:cjc129_1515"
    INDEX 01 01:31:59
  TRACK 57 AUDIO
    TITLE "0:"
    INDEX 01 01:35:02
  TRACK 58 AUDIO
    TITLE "3:cjc129_1516"
    INDEX 01 01:36:52
  TRACK 59 AUDIO
    TITLE "0:"
    INDEX 01 01:37:58
  TRACK 60 AUDIO
    TITLE "5:cjc129_1517"
    INDEX 01 01:39:33
  TRACK 61 AUDIO
    TITLE "0:"
    INDEX 01 01:42:59
  TRACK 62 AUDIO
    TITLE "4:cjc129_1518"
    INDEX 01 01:43:51
  TRACK 63 AUDIO
    TITLE "0:"
    INDEX 01 01:44:56
  TRACK 64 AUDIO
    TITLE "6:cjc129_1519"
    INDEX 01 01:45:14
  TRACK 65 AUDIO
    TITLE "0:"
    INDEX 01 01:50:09
  TRACK 66 AUDIO
    TITLE "3:cjc129_1520"
    INDEX 01 01:51:58
  TRACK 67 AUDIO
    TITLE "0:"
    INDEX 01 01:52:67
  TRACK 68 AUDIO
    TITLE "5:cjc129_1521"
    INDEX 01 01:54:21
  TRACK 69 AUDIO
    TITLE "0:"
    INDEX 01 02:01:07
  TRACK 70 AUDIO
    TITLE "4:cjc129_1522"
    INDEX 01 02:01:70
  TRACK 71 AUDIO
    TITLE "0:"
    INDEX 01 02:03:04
  TRACK 72 AUDIO
    TITLE "6:cjc129_1523"
    INDEX 01 02:03:36
  TRACK 73 AUDIO
    TITLE "0:"
    INDEX 01 02:07:18
